<?xml version="1.0" encoding="UTF-8"?>
<svg id="Layer_1" xmlns="http://www.w3.org/2000/svg" version="1.1" viewBox="0 0 763.91 184.73">
  <!-- Generator: Adobe Illustrator 29.3.0, SVG Export Plug-In . SVG Version: 2.1.0 Build 146)  -->
  <defs>
    <style>
      .st0 {
        fill: #82c1b1;
      }

      .st1 {
        fill: none;
      }

      .st2 {
        fill: #00487c;
      }
    </style>
  </defs>
  <path class="st0" d="M41.48,147.92c-.16.13-.22.07-.23-.1.02-5.36,0-21.31.03-23.94.03-.71.37-1.02.87-1.71,3.26-4.18,7.43-7.92,12.26-10.23,9.13-4.84,18.96-.85,28.86-2.05,3.42-.33,10.75-3.65,11.05,2.04-1.47,6.26-9.81,6.51-15.11,7.57-2.73.29-8.1,2.1-5.58,5.55,2.68,2.85,7.54,3.37,11.1,3.76,10.23.75,19.99-2.86,26.39-10.94,1.86-2.19,2.93-4.44,5.3-6.12,2.6-1.91,5.56-1.42,4.41,2.17-.76,2.24-1.08,4.33-2.46,6.33-4.96,6.78-11.86,12.83-18.7,16.64-22.69,13.85-41.21-10.08-58.12,10.99l-.06.05Z"/>
  <path class="st0" d="M96.02,125.14c5.28-2.92,9.05-7.8,11.37-13.26.75-1.72,1.45-3.54,3.09-4.62,1.83-1.41,4.76-.91,4.4,1.69-.71,2.81-3.97,6.33-5.84,8.65l-.13.14c-3.72,3.88-9.4,7.65-14.7,8.56,0-.23,1.33-.89,1.8-1.17"/>
  <path class="st2" d="M125,89.59c.36-24.88-14.19-47.52-39.66-51.96-7.06-1.36-14.75-.96-21.87-1.02-6.45.03-14.15-.09-20.5.07-.81.05-1.75.1-1.72.99.05,13.15-.07,63.81,0,81.14.09.73.5.27,1.22-.36,3.2-3.24,7.01-6.51,11.16-8.4,2.06-1,4.37-1.65,5.57-2.17,1.31-.45,1.47-1.46,1.4-2.79,0-9.16,0-44.49,0-51.42.02-.62-.01-1.15.63-1.39,1.58-.37,6.07-.2,8.31-.23,8.07-.09,14.95.24,21.69,4.43,10.5,6.46,14,19.37,14.27,31.15.36,5.09-.38,10.07.12,14.98.6,3.53,4.29,2.3,6.79,2.43,2.14.09,3.82,1.46,5.55,2.4,2.62,1.26,3.63,3.45,2.86,6.49-4,14.35-25.33,28.62-39.92,27.31-6.94-.42-13.96-2.56-20.9-2.45-5.16.04-10.09,1.23-14.43,4.91-1.54,1.37-5.49,3.97-4.33,6.07.85,1.23,4.77,1.11,6.34,1.12,10.8-.05,23.89.63,34.42-.53,18.65-2.18,39.97-16.09,41.45-35.46.62-8.34,1.96-16.68,1.56-25.07v-.2Z"/>
  <path class="st2" d="M100.72,138.77c-5.34,3.26-11.12,4.87-17.57,4.87-4.52,0-8.79-.75-12.92-1.47-3.76-.66-7.3-1.28-10.71-1.28-4.41,0-10.2.93-16.05,8.05h30.41c7.71,0,14.7-1.25,20.95-3.74,6.25-2.49,11.63-6.07,16.16-10.72,3.37-3.47,6.16-7.46,8.36-11.98-5.02,6.55-11.73,12.43-18.63,16.27Z"/>
  <path class="st0" d="M92.08,124.68c0-.24.98-1.09,1.44-1.46,4.13-3.16,6.29-7.84,7.56-12.75.44-1.26,1.13-2.55,2.32-3.18,1.27-.73,3.22-.4,3.33,1.22.07,1.14-.55,2.29-1.02,3.33-2.32,5.26-6.19,9.65-11.48,12.26-.56.24-1.75.92-2.16.62v-.05Z"/>
  <path class="st1" d="M107.86,110.18v-1.76c-.61.43-.84.92,0,1.76Z"/>
  <g>
    <path class="st2" d="M153.24,67.54l19.83,62.49,3.32,19.6-12.88,3.32-30.32-85.4h20.06ZM166.05,141.91l22.68-74.37h19.9l-33.48,96.2c-.77,2.06-1.77,4.29-3.01,6.71-1.23,2.42-2.84,4.72-4.82,6.9-1.98,2.19-4.44,3.96-7.37,5.32-2.93,1.36-6.48,2.04-10.65,2.04-1.65,0-3.23-.14-4.75-.42-1.52-.28-2.94-.58-4.28-.89l-.08-14.2c.51.05,1.14.1,1.89.15.75.05,1.35.08,1.81.08,3.09,0,5.66-.37,7.71-1.12,2.06-.75,3.74-1.94,5.05-3.59,1.31-1.65,2.43-3.86,3.36-6.63l6.02-16.2Z"/>
    <path class="st2" d="M238.75,85.36v65.65h-18.59v-83.48h17.51l1.08,17.82ZM235.43,106.19l-6.02-.08c.05-5.91.89-11.34,2.51-16.28,1.62-4.94,3.88-9.18,6.79-12.73,2.9-3.55,6.39-6.29,10.45-8.22,4.06-1.93,8.59-2.89,13.58-2.89,4.01,0,7.65.55,10.92,1.66,3.27,1.11,6.07,2.89,8.41,5.36,2.34,2.47,4.13,5.67,5.36,9.6s1.85,8.76,1.85,14.47v53.93h-18.67v-54c0-4.01-.58-7.19-1.74-9.53-1.16-2.34-2.83-4.01-5.01-5.01-2.19-1-4.9-1.5-8.14-1.5s-6.04.67-8.56,2.01c-2.52,1.34-4.64,3.16-6.37,5.48-1.72,2.31-3.05,4.99-3.97,8.02-.93,3.04-1.39,6.28-1.39,9.72Z"/>
    <path class="st2" d="M359.12,100.25l.15,11.5h-13.35c-3.45,0-6.48.32-9.1.96-2.62.64-4.81,1.58-6.56,2.82-1.75,1.23-3.06,2.73-3.93,4.47-.88,1.75-1.31,3.73-1.31,5.94s.51,4.23,1.54,6.06c1.03,1.83,2.53,3.25,4.51,4.28,1.98,1.03,4.38,1.54,7.21,1.54,3.81,0,7.14-.78,9.99-2.35,2.85-1.57,5.1-3.5,6.75-5.79,1.65-2.29,2.52-4.46,2.62-6.52l6.02,8.26c-.62,2.11-1.67,4.37-3.16,6.79-1.49,2.42-3.43,4.72-5.83,6.9-2.39,2.19-5.25,3.97-8.56,5.36-3.32,1.39-7.14,2.08-11.46,2.08-5.45,0-10.31-1.09-14.58-3.28-4.27-2.19-7.61-5.14-10.03-8.87-2.42-3.73-3.63-7.96-3.63-12.69,0-4.42.83-8.34,2.51-11.77,1.67-3.42,4.14-6.29,7.41-8.6,3.26-2.31,7.26-4.08,12-5.28,4.73-1.21,10.13-1.81,16.2-1.81h14.58ZM356.42,134.27v-39.81c0-2.98-.54-5.55-1.62-7.71s-2.71-3.83-4.9-5.01c-2.19-1.18-4.92-1.77-8.22-1.77-3.04,0-5.66.51-7.87,1.54-2.21,1.03-3.93,2.42-5.17,4.17-1.23,1.75-1.85,3.73-1.85,5.94h-18.52c0-3.29.8-6.48,2.39-9.57,1.59-3.09,3.91-5.84,6.94-8.25,3.03-2.42,6.66-4.32,10.88-5.71,4.22-1.39,8.95-2.08,14.2-2.08,6.27,0,11.84,1.05,16.7,3.16,4.86,2.11,8.69,5.28,11.49,9.53,2.8,4.24,4.21,9.55,4.21,15.93v37.11c0,3.81.27,7.21.81,10.22.54,3.01,1.32,5.62,2.35,7.83v1.23h-19.06c-.88-2.01-1.56-4.56-2.04-7.68-.49-3.11-.73-6.13-.73-9.06Z"/>
    <path class="st2" d="M414.23,84.51v66.5h-18.59v-83.48h17.51l1.08,16.97ZM411.23,106.19l-6.33-.08c0-5.76.72-11.08,2.16-15.97,1.44-4.89,3.55-9.14,6.33-12.77s6.24-6.43,10.38-8.41c4.14-1.98,8.94-2.97,14.39-2.97,3.81,0,7.29.55,10.45,1.66,3.16,1.11,5.91,2.84,8.25,5.21,2.34,2.37,4.14,5.4,5.4,9.1,1.26,3.7,1.89,8.18,1.89,13.42v55.62h-18.59v-54c0-4.06-.61-7.25-1.81-9.57-1.21-2.31-2.93-3.97-5.17-4.98-2.24-1-4.9-1.5-7.99-1.5-3.5,0-6.47.67-8.91,2.01-2.44,1.34-4.44,3.16-5.98,5.48s-2.67,4.99-3.39,8.02c-.72,3.04-1.08,6.28-1.08,9.72ZM462.99,101.25l-8.72,1.93c0-5.04.71-9.81,2.12-14.31,1.41-4.5,3.5-8.46,6.25-11.88,2.75-3.42,6.16-6.11,10.22-8.06,4.06-1.95,8.72-2.93,13.96-2.93,4.27,0,8.09.58,11.46,1.74,3.37,1.16,6.24,2.97,8.6,5.44,2.37,2.47,4.17,5.67,5.4,9.6s1.85,8.68,1.85,14.23v54h-18.67v-54.08c0-4.22-.61-7.48-1.81-9.8-1.21-2.31-2.92-3.92-5.13-4.82-2.21-.9-4.86-1.35-7.95-1.35-2.88,0-5.41.53-7.6,1.58-2.19,1.05-4.03,2.52-5.52,4.4-1.49,1.88-2.61,4.02-3.36,6.44-.75,2.42-1.12,5.04-1.12,7.87Z"/>
    <path class="st2" d="M534.38,45.63c0-2.83.94-5.18,2.82-7.06,1.88-1.88,4.49-2.82,7.83-2.82s5.89.94,7.79,2.82c1.9,1.88,2.85,4.23,2.85,7.06s-.95,5.09-2.85,6.94c-1.9,1.85-4.5,2.78-7.79,2.78s-5.95-.93-7.83-2.78c-1.88-1.85-2.82-4.17-2.82-6.94ZM554.28,67.54v83.48h-18.67v-83.48h18.67Z"/>
    <path class="st2" d="M609.86,137.74c3.03,0,5.77-.6,8.22-1.81,2.44-1.21,4.42-2.89,5.94-5.05,1.52-2.16,2.35-4.65,2.51-7.48h17.51c-.1,5.4-1.7,10.31-4.78,14.74-3.09,4.42-7.17,7.93-12.27,10.53s-10.72,3.9-16.9,3.9-11.93-1.09-16.66-3.28c-4.73-2.19-8.67-5.21-11.8-9.06-3.14-3.86-5.49-8.31-7.06-13.35-1.57-5.04-2.35-10.44-2.35-16.2v-2.7c0-5.76.78-11.17,2.35-16.24,1.57-5.07,3.92-9.53,7.06-13.39,3.14-3.86,7.07-6.88,11.8-9.06,4.73-2.19,10.26-3.28,16.59-3.28,6.69,0,12.55,1.32,17.59,3.97,5.04,2.65,9.01,6.33,11.92,11.03,2.9,4.71,4.41,10.17,4.51,16.39h-17.51c-.15-3.09-.91-5.88-2.28-8.37-1.36-2.49-3.27-4.49-5.71-5.98-2.44-1.49-5.36-2.24-8.76-2.24-3.75,0-6.87.76-9.33,2.28-2.47,1.52-4.4,3.58-5.79,6.17-1.39,2.6-2.38,5.5-2.97,8.72-.59,3.21-.89,6.55-.89,9.99v2.7c0,3.45.28,6.79.85,10.03.57,3.24,1.55,6.13,2.97,8.68,1.41,2.55,3.36,4.58,5.82,6.09,2.47,1.52,5.61,2.28,9.41,2.28Z"/>
    <path class="st2" d="M709.1,100.25l.15,11.5h-13.35c-3.45,0-6.48.32-9.1.96-2.62.64-4.81,1.58-6.56,2.82-1.75,1.23-3.06,2.73-3.93,4.47-.88,1.75-1.31,3.73-1.31,5.94s.51,4.23,1.54,6.06c1.03,1.83,2.53,3.25,4.51,4.28,1.98,1.03,4.38,1.54,7.21,1.54,3.81,0,7.14-.78,9.99-2.35,2.85-1.57,5.1-3.5,6.75-5.79,1.65-2.29,2.52-4.46,2.62-6.52l6.02,8.26c-.62,2.11-1.67,4.37-3.16,6.79-1.49,2.42-3.43,4.72-5.83,6.9-2.39,2.19-5.25,3.97-8.56,5.36-3.32,1.39-7.14,2.08-11.46,2.08-5.45,0-10.31-1.09-14.58-3.28-4.27-2.19-7.61-5.14-10.03-8.87-2.42-3.73-3.63-7.96-3.63-12.69,0-4.42.83-8.34,2.51-11.77,1.67-3.42,4.14-6.29,7.41-8.6,3.26-2.31,7.26-4.08,12-5.28,4.73-1.21,10.13-1.81,16.2-1.81h14.58ZM706.4,134.27v-39.81c0-2.98-.54-5.55-1.62-7.71s-2.71-3.83-4.9-5.01c-2.19-1.18-4.92-1.77-8.22-1.77-3.04,0-5.66.51-7.87,1.54-2.21,1.03-3.93,2.42-5.17,4.17-1.23,1.75-1.85,3.73-1.85,5.94h-18.52c0-3.29.8-6.48,2.39-9.57,1.59-3.09,3.91-5.84,6.94-8.25,3.03-2.42,6.66-4.32,10.88-5.71,4.22-1.39,8.95-2.08,14.2-2.08,6.27,0,11.84,1.05,16.7,3.16,4.86,2.11,8.69,5.28,11.49,9.53,2.8,4.24,4.21,9.55,4.21,15.93v37.11c0,3.81.27,7.21.81,10.22.54,3.01,1.32,5.62,2.35,7.83v1.23h-19.06c-.88-2.01-1.56-4.56-2.04-7.68-.49-3.11-.73-6.13-.73-9.06Z"/>
  </g>
</svg>